<mxfile host="app.diagrams.net" agent="Mozilla/5.0 (Windows NT 10.0; Win64; x64) AppleWebKit/537.36 (KHTML, like Gecko) Chrome/134.0.0.0 Safari/537.36" version="26.1.1">
  <diagram name="Página-1" id="4dwBbkSEYuKOfpgxbFKx">
    <mxGraphModel dx="1941" dy="1761" grid="1" gridSize="10" guides="1" tooltips="1" connect="1" arrows="1" fold="1" page="1" pageScale="1" pageWidth="827" pageHeight="1169" math="0" shadow="0">
      <root>
        <mxCell id="0" />
        <mxCell id="1" parent="0" />
        <mxCell id="YtkogLy8QdgydUsZjIkE-1" style="edgeStyle=none;curved=1;rounded=1;orthogonalLoop=1;jettySize=auto;html=1;fontSize=12;startSize=8;endSize=8;" edge="1" parent="1" target="YtkogLy8QdgydUsZjIkE-5">
          <mxGeometry relative="1" as="geometry">
            <mxPoint x="-460" y="-480" as="targetPoint" />
            <mxPoint x="-394" y="-584" as="sourcePoint" />
          </mxGeometry>
        </mxCell>
        <mxCell id="YtkogLy8QdgydUsZjIkE-2" value="" style="edgeStyle=none;curved=1;rounded=1;orthogonalLoop=1;jettySize=auto;html=1;fontSize=12;startSize=8;endSize=8;" edge="1" parent="1" target="YtkogLy8QdgydUsZjIkE-14">
          <mxGeometry relative="1" as="geometry">
            <mxPoint x="-602.5843621399176" y="-414" as="sourcePoint" />
          </mxGeometry>
        </mxCell>
        <mxCell id="YtkogLy8QdgydUsZjIkE-3" style="edgeStyle=none;curved=1;rounded=1;orthogonalLoop=1;jettySize=auto;html=1;fontSize=12;startSize=8;endSize=8;" edge="1" parent="1" target="YtkogLy8QdgydUsZjIkE-17">
          <mxGeometry relative="1" as="geometry">
            <mxPoint x="-446" y="-369" as="targetPoint" />
            <mxPoint x="-578.0224719101125" y="-414" as="sourcePoint" />
          </mxGeometry>
        </mxCell>
        <mxCell id="YtkogLy8QdgydUsZjIkE-4" style="edgeStyle=none;curved=1;rounded=1;orthogonalLoop=1;jettySize=auto;html=1;fontSize=12;startSize=8;endSize=8;" edge="1" parent="1" target="YtkogLy8QdgydUsZjIkE-18">
          <mxGeometry relative="1" as="geometry">
            <mxPoint x="-726" y="-409" as="targetPoint" />
            <mxPoint x="-632.4556962025317" y="-414" as="sourcePoint" />
          </mxGeometry>
        </mxCell>
        <mxCell id="YtkogLy8QdgydUsZjIkE-5" value="Aspectos Tecnológicos" style="rounded=1;whiteSpace=wrap;html=1;fillColor=#dae8fc;strokeColor=#6c8ebf;" vertex="1" parent="1">
          <mxGeometry x="-670" y="-454" width="160" height="40" as="geometry" />
        </mxCell>
        <mxCell id="YtkogLy8QdgydUsZjIkE-6" value="" style="edgeStyle=none;curved=1;rounded=1;orthogonalLoop=1;jettySize=auto;html=1;fontSize=12;startSize=8;endSize=8;entryX=1;entryY=0.5;entryDx=0;entryDy=0;exitX=0.5;exitY=1;exitDx=0;exitDy=0;" edge="1" parent="1" source="YtkogLy8QdgydUsZjIkE-8" target="YtkogLy8QdgydUsZjIkE-9">
          <mxGeometry relative="1" as="geometry">
            <mxPoint x="-350" y="-450" as="targetPoint" />
            <mxPoint x="-250" y="-490" as="sourcePoint" />
          </mxGeometry>
        </mxCell>
        <mxCell id="YtkogLy8QdgydUsZjIkE-7" style="edgeStyle=none;curved=1;rounded=1;orthogonalLoop=1;jettySize=auto;html=1;fontSize=12;startSize=8;endSize=8;entryX=1;entryY=0.5;entryDx=0;entryDy=0;exitX=0.5;exitY=1;exitDx=0;exitDy=0;" edge="1" parent="1" source="YtkogLy8QdgydUsZjIkE-8" target="YtkogLy8QdgydUsZjIkE-11">
          <mxGeometry relative="1" as="geometry">
            <mxPoint x="-310" y="-390" as="targetPoint" />
          </mxGeometry>
        </mxCell>
        <mxCell id="YtkogLy8QdgydUsZjIkE-8" value="Conteúdo" style="rounded=1;whiteSpace=wrap;html=1;fillColor=#dae8fc;strokeColor=#6c8ebf;" vertex="1" parent="1">
          <mxGeometry x="-330" y="-535" width="160" height="40" as="geometry" />
        </mxCell>
        <mxCell id="YtkogLy8QdgydUsZjIkE-9" value="Pensamento COmputacional" style="whiteSpace=wrap;html=1;rounded=1;" vertex="1" parent="1">
          <mxGeometry x="-480" y="-495" width="120" height="30" as="geometry" />
        </mxCell>
        <mxCell id="YtkogLy8QdgydUsZjIkE-10" value="Metodologias Ativas&amp;nbsp;" style="whiteSpace=wrap;html=1;rounded=1;arcSize=17;" vertex="1" parent="1">
          <mxGeometry x="-310" y="-360" width="140" height="30" as="geometry" />
        </mxCell>
        <mxCell id="YtkogLy8QdgydUsZjIkE-11" value="Computação Desplugada" style="whiteSpace=wrap;html=1;rounded=1;" vertex="1" parent="1">
          <mxGeometry x="-450" y="-445" width="120" height="30" as="geometry" />
        </mxCell>
        <mxCell id="YtkogLy8QdgydUsZjIkE-12" style="edgeStyle=none;curved=1;rounded=1;orthogonalLoop=1;jettySize=auto;html=1;fontSize=12;startSize=8;endSize=8;" edge="1" parent="1" source="YtkogLy8QdgydUsZjIkE-14">
          <mxGeometry relative="1" as="geometry">
            <mxPoint x="-596" y="-275" as="targetPoint" />
          </mxGeometry>
        </mxCell>
        <mxCell id="YtkogLy8QdgydUsZjIkE-13" style="edgeStyle=none;curved=1;rounded=1;orthogonalLoop=1;jettySize=auto;html=1;fontSize=12;startSize=8;endSize=8;" edge="1" parent="1" source="YtkogLy8QdgydUsZjIkE-14">
          <mxGeometry relative="1" as="geometry">
            <mxPoint x="-682.9444444444443" y="-280" as="targetPoint" />
          </mxGeometry>
        </mxCell>
        <mxCell id="YtkogLy8QdgydUsZjIkE-14" value="AVA&amp;nbsp;" style="whiteSpace=wrap;html=1;rounded=1;" vertex="1" parent="1">
          <mxGeometry x="-696" y="-325" width="120" height="25" as="geometry" />
        </mxCell>
        <mxCell id="YtkogLy8QdgydUsZjIkE-15" value="Webfólio:" style="rounded=1;whiteSpace=wrap;html=1;" vertex="1" parent="1">
          <mxGeometry x="-590" y="-280" width="120" height="30" as="geometry" />
        </mxCell>
        <mxCell id="YtkogLy8QdgydUsZjIkE-16" value="Fórum" style="rounded=1;whiteSpace=wrap;html=1;" vertex="1" parent="1">
          <mxGeometry x="-750" y="-280" width="110" height="25" as="geometry" />
        </mxCell>
        <mxCell id="YtkogLy8QdgydUsZjIkE-17" value="Biblioteca&amp;nbsp;" style="rounded=1;whiteSpace=wrap;html=1;" vertex="1" parent="1">
          <mxGeometry x="-576" y="-355" width="120" height="20" as="geometry" />
        </mxCell>
        <mxCell id="YtkogLy8QdgydUsZjIkE-18" value="Página do curso" style="rounded=1;whiteSpace=wrap;html=1;" vertex="1" parent="1">
          <mxGeometry x="-800" y="-375" width="120" height="40" as="geometry" />
        </mxCell>
        <mxCell id="YtkogLy8QdgydUsZjIkE-19" style="edgeStyle=none;curved=1;rounded=1;orthogonalLoop=1;jettySize=auto;html=1;entryX=0.45;entryY=0.045;entryDx=0;entryDy=0;entryPerimeter=0;fontSize=12;startSize=8;endSize=8;" edge="1" parent="1" target="YtkogLy8QdgydUsZjIkE-8">
          <mxGeometry relative="1" as="geometry">
            <mxPoint x="-299" y="-584" as="sourcePoint" />
          </mxGeometry>
        </mxCell>
        <mxCell id="YtkogLy8QdgydUsZjIkE-20" value="Computação Plugada" style="whiteSpace=wrap;html=1;rounded=1;" vertex="1" parent="1">
          <mxGeometry x="-436" y="-394" width="120" height="30" as="geometry" />
        </mxCell>
        <mxCell id="YtkogLy8QdgydUsZjIkE-21" style="edgeStyle=none;curved=1;rounded=1;orthogonalLoop=1;jettySize=auto;html=1;fontSize=12;startSize=8;endSize=8;entryX=0.942;entryY=-0.067;entryDx=0;entryDy=0;entryPerimeter=0;" edge="1" parent="1" target="YtkogLy8QdgydUsZjIkE-20">
          <mxGeometry relative="1" as="geometry">
            <mxPoint x="-325" y="-401.01" as="targetPoint" />
            <mxPoint x="-250" y="-495" as="sourcePoint" />
          </mxGeometry>
        </mxCell>
        <mxCell id="YtkogLy8QdgydUsZjIkE-22" style="edgeStyle=none;curved=1;rounded=1;orthogonalLoop=1;jettySize=auto;html=1;fontSize=12;startSize=8;endSize=8;exitX=0.5;exitY=1;exitDx=0;exitDy=0;" edge="1" parent="1" source="YtkogLy8QdgydUsZjIkE-8">
          <mxGeometry relative="1" as="geometry">
            <mxPoint x="-250" y="-370" as="targetPoint" />
            <mxPoint x="-249" y="-475" as="sourcePoint" />
          </mxGeometry>
        </mxCell>
        <mxCell id="YtkogLy8QdgydUsZjIkE-23" value="Ebook" style="whiteSpace=wrap;html=1;rounded=1;arcSize=17;" vertex="1" parent="1">
          <mxGeometry x="-210" y="-409" width="80" height="30" as="geometry" />
        </mxCell>
        <mxCell id="YtkogLy8QdgydUsZjIkE-24" style="edgeStyle=none;curved=1;rounded=1;orthogonalLoop=1;jettySize=auto;html=1;fontSize=12;startSize=8;endSize=8;entryX=0.5;entryY=0;entryDx=0;entryDy=0;exitX=0.5;exitY=1;exitDx=0;exitDy=0;" edge="1" parent="1" source="YtkogLy8QdgydUsZjIkE-8" target="YtkogLy8QdgydUsZjIkE-23">
          <mxGeometry relative="1" as="geometry">
            <mxPoint x="-320" y="-420" as="targetPoint" />
            <mxPoint x="-260" y="-490" as="sourcePoint" />
          </mxGeometry>
        </mxCell>
        <mxCell id="YtkogLy8QdgydUsZjIkE-25" style="edgeStyle=orthogonalEdgeStyle;rounded=0;orthogonalLoop=1;jettySize=auto;html=1;exitX=0.5;exitY=1;exitDx=0;exitDy=0;entryX=0.317;entryY=0.9;entryDx=0;entryDy=0;entryPerimeter=0;" edge="1" parent="1">
          <mxGeometry relative="1" as="geometry">
            <mxPoint x="-396" y="-415" as="sourcePoint" />
            <mxPoint x="-417.96000000000004" y="-418" as="targetPoint" />
          </mxGeometry>
        </mxCell>
        <mxCell id="YtkogLy8QdgydUsZjIkE-26" value="Arquitetura Pedagógica" style="text;strokeColor=#d6b656;fillColor=#fff2cc;html=1;align=center;verticalAlign=middle;whiteSpace=wrap;rounded=1;fontSize=16;" vertex="1" parent="1">
          <mxGeometry x="-480" y="-674" width="290" height="90" as="geometry" />
        </mxCell>
      </root>
    </mxGraphModel>
  </diagram>
</mxfile>
